<svg width="32" height="32" viewBox="0 0 32 32" fill="none" xmlns="http://www.w3.org/2000/svg"><g clip-path="url(#clip0_94_571)"><mask id="path-1-inside-1_94_571" fill="white"><path d="M16.2175 4.02258C20.7133 7.02043 22.2119 7.02043 26.7207 7.02043C26.7207 15.1872 26.7207 18.9044 25.0397 21.5559C23.6354 23.771 21.0578 25.2424 16.327 27.9429L16.2175 28.0053C11.4223 25.268 8.81633 23.7804 7.40012 21.5405C5.71436 18.8743 5.71436 15.1423 5.71436 6.96783L5.94356 6.96786C10.2754 6.96874 11.7988 6.96905 16.2175 4.02258Z"/></mask><path d="M26.7207 7.02043H27.7207C27.7207 6.46814 27.273 6.02043 26.7207 6.02043V7.02043ZM16.2175 4.02258L16.7723 3.19059C16.4364 2.96658 15.9987 2.96658 15.6628 3.19059L16.2175 4.02258ZM25.0397 21.5559L25.8843 22.0913L25.0397 21.5559ZM16.327 27.9429L15.8312 27.0744L15.8312 27.0744L16.327 27.9429ZM16.2175 28.0053L15.7218 28.8738C16.029 29.0492 16.4061 29.0492 16.7133 28.8738L16.2175 28.0053ZM7.40012 21.5405L6.5549 22.0749H6.5549L7.40012 21.5405ZM5.71436 6.96783L5.71449 5.96783C5.44925 5.9678 5.19486 6.07314 5.0073 6.26068C4.81973 6.44822 4.71436 6.70259 4.71436 6.96783H5.71436ZM5.94356 6.96786L5.94376 5.96786H5.94369L5.94356 6.96786ZM26.7207 6.02043C24.4336 6.02043 23.0641 6.01458 21.7066 5.6755C20.3712 5.34194 18.9851 4.66611 16.7723 3.19059L15.6628 4.85458C17.9457 6.3769 19.5569 7.19999 21.2219 7.61589C22.8649 8.02627 24.4991 8.02043 26.7207 8.02043V6.02043ZM25.7207 7.02043C25.7207 11.1238 25.7197 14.0399 25.5148 16.2647C25.3112 18.4752 24.914 19.8866 24.1952 21.0204L25.8843 22.0913C26.8465 20.5737 27.2897 18.8007 27.5064 16.4481C27.7217 14.1097 27.7207 11.0838 27.7207 7.02043H25.7207ZM15.8312 27.0744L15.7218 27.1369L16.7133 28.8738L16.8227 28.8113L15.8312 27.0744ZM24.1952 21.0204C23.5921 21.9717 22.7145 22.8035 21.3595 23.7466C19.9933 24.6975 18.2114 25.7157 15.8312 27.0744L16.8227 28.8113C19.1734 27.4695 21.0457 26.4018 22.5021 25.3881C23.9697 24.3666 25.0831 23.3552 25.8843 22.0913L24.1952 21.0204ZM8.24534 21.0061C7.52352 19.8645 7.12504 18.4451 6.92086 16.2281C6.71537 13.9968 6.71436 11.075 6.71436 6.96783H4.71436C4.71436 11.0351 4.71334 14.0666 4.92929 16.4115C5.14655 18.7706 5.59096 20.5504 6.5549 22.0749L8.24534 21.0061ZM5.71422 7.96783L5.94342 7.96786L5.94369 5.96786L5.71449 5.96783L5.71422 7.96783ZM5.94336 7.96786C8.07784 7.9683 9.67309 7.97437 11.2902 7.5707C12.9283 7.16178 14.5257 6.35266 16.7723 4.85458L15.6628 3.19059C13.4907 4.63897 12.117 5.30293 10.8058 5.63025C9.47351 5.96282 8.14114 5.96831 5.94376 5.96786L5.94336 7.96786ZM16.7133 27.1369C14.3009 25.7598 12.4959 24.7283 11.113 23.7657C9.74148 22.8109 8.85423 21.9691 8.24534 21.0061L6.5549 22.0749C7.36222 23.3518 8.48607 24.3738 9.97036 25.4071C11.4434 26.4325 13.3389 27.5136 15.7218 28.8738L16.7133 27.1369Z" fill="#0076FF" mask="url(#path-1-inside-1_94_571)"/><path fill-rule="evenodd" clip-rule="evenodd" d="M16.2461 15.152C16.2713 13.9342 17.2663 12.9548 18.49 12.9548C19.7296 12.9548 20.7344 13.9596 20.7344 15.1992C20.7344 16.4387 19.7296 17.4436 18.49 17.4436C17.2688 17.4436 16.2754 16.4682 16.2463 15.254L16.2461 15.152ZM16.2412 12.2097C16.8672 11.7381 17.6459 11.4586 18.49 11.4586C20.5559 11.4586 22.2306 13.1333 22.2306 15.1992C22.2306 17.2651 20.5559 18.9398 18.49 18.9398C17.4591 18.9398 16.5255 18.5227 15.8489 17.8481C15.3949 18.6321 14.5437 19.0009 13.2476 19.0009C11.1832 19.0009 10.2476 18.0634 10.2476 16.0069V11.5159H11.7457V16.0069C11.7457 17.3187 11.9328 17.5058 13.2438 17.5058C14.5544 17.5058 14.7419 17.3187 14.7419 16.0069V11.5159H16.2401L16.2412 12.2097Z" fill="#0076FF"/></g><defs><clipPath id="clip0_94_571"><rect width="24" height="24" fill="white" transform="translate(4 4)"/></clipPath></defs></svg>
