<svg width="32" height="32" viewBox="0 0 32 32" fill="none" xmlns="http://www.w3.org/2000/svg">
<path d="M24.826 16.2361L24.8158 16.4185L24.9257 16.5645L26.4376 18.5736L26.8371 18.273L26.44 18.5768C26.4677 18.613 26.4865 18.6551 26.495 18.6999C26.5034 18.7447 26.5012 18.7908 26.4886 18.8346L26.4886 18.8346L26.4867 18.8413C26.2422 19.736 25.8869 20.5966 25.4292 21.4034C25.4046 21.4456 25.3709 21.4819 25.3307 21.5097C25.291 21.5371 25.2459 21.5554 25.1985 21.5636L22.7078 21.918L22.5295 21.9433L22.4083 22.0766C22.3503 22.1404 22.2836 22.2053 22.2062 22.2806C22.161 22.3245 22.1123 22.3719 22.0594 22.4247L21.9415 22.5427L21.918 22.7078L21.5636 25.1985C21.5554 25.2459 21.5371 25.291 21.5097 25.3307C21.4819 25.3709 21.4456 25.4046 21.4034 25.4292C20.5966 25.8869 19.736 26.2422 18.8413 26.4867L18.8413 26.4867L18.8346 26.4886C18.7908 26.5012 18.7447 26.5034 18.6999 26.495C18.6551 26.4865 18.613 26.4677 18.5768 26.44L18.5768 26.44L18.5723 26.4366L16.5632 24.9349L16.43 24.8354H16.2638H15.7362H15.57L15.4368 24.9349L13.4277 26.4366L13.4277 26.4366L13.4219 26.4411C13.3717 26.4797 13.3099 26.5003 13.2465 26.4995L13.2465 26.4995L13.2409 26.4995C13.2156 26.4994 13.1903 26.4958 13.166 26.4888L13.166 26.4887L13.1587 26.4867C12.2641 26.2422 11.4034 25.8869 10.5967 25.4292C10.5544 25.4046 10.5181 25.371 10.4903 25.3307C10.4629 25.291 10.4445 25.2458 10.4364 25.1984L10.082 22.7177L10.0584 22.5527L9.94057 22.4349L9.56513 22.0594L9.44728 21.9416L9.28229 21.918L6.80163 21.5636C6.75415 21.5555 6.709 21.5371 6.66932 21.5097C6.62906 21.4819 6.59544 21.4456 6.57085 21.4034C6.11312 20.5967 5.75785 19.736 5.51327 18.8413L5.51331 18.8413L5.5114 18.8346C5.49878 18.7908 5.4966 18.7447 5.50504 18.6999C5.51348 18.6551 5.53229 18.613 5.55998 18.5768L5.56 18.5768L5.56312 18.5726L7.07504 16.5534L7.1748 16.4201V16.2537V15.7362V15.5691L7.07431 15.4355L5.56239 13.4264L5.5624 13.4264L5.55998 13.4232C5.53229 13.387 5.51348 13.3449 5.50504 13.3001C5.4966 13.2553 5.49878 13.2092 5.5114 13.1654L5.51145 13.1654L5.51327 13.1587C5.75784 12.264 6.11311 11.4034 6.57083 10.5966C6.59542 10.5544 6.62905 10.5181 6.66932 10.4903C6.709 10.4629 6.75416 10.4445 6.80164 10.4364L9.28229 10.082L9.44728 10.0584L9.56513 9.94057L9.94057 9.56513L10.0584 9.44728L10.082 9.28229L10.4364 6.80164C10.4445 6.75416 10.4629 6.709 10.4903 6.66932C10.5181 6.62905 10.5544 6.59542 10.5966 6.57083C11.4034 6.11311 12.264 5.75784 13.1587 5.51327L13.1587 5.51331L13.1654 5.5114C13.2092 5.49878 13.2553 5.4966 13.3001 5.50504C13.3449 5.51348 13.387 5.53229 13.4232 5.55998L13.4232 5.56001L13.4277 5.56336L15.4368 7.06514L15.57 7.16465H15.7362H16.2638H16.43L16.5632 7.06514L18.5723 5.56336L18.5723 5.56339L18.5768 5.55998C18.613 5.53229 18.6551 5.51348 18.6999 5.50504C18.7447 5.4966 18.7908 5.49878 18.8346 5.5114L18.8346 5.51145L18.8413 5.51327C19.736 5.75785 20.5967 6.11312 21.4034 6.57085C21.4456 6.59544 21.4819 6.62906 21.5097 6.66932C21.5371 6.709 21.5555 6.75415 21.5636 6.80163L21.918 9.28229L21.9416 9.44728L22.0594 9.56513L22.4349 9.94057L22.5527 10.0584L22.7177 10.082L25.1984 10.4364C25.2458 10.4445 25.291 10.4629 25.3307 10.4903C25.371 10.5181 25.4046 10.5544 25.4292 10.5967C25.8869 11.4034 26.2422 12.2641 26.4867 13.1587L26.4867 13.1587L26.4886 13.1654C26.5012 13.2092 26.5034 13.2553 26.495 13.3001C26.4865 13.3449 26.4677 13.387 26.44 13.4232L26.44 13.4232L26.4369 13.4274L24.925 15.4466L24.8252 15.5799V15.7463C24.8252 15.8109 24.8265 15.8703 24.8277 15.9275C24.8299 16.0317 24.8319 16.1286 24.826 16.2361ZM13.2417 20.128C14.0582 20.6736 15.0181 20.9647 16 20.9647C17.3167 20.9647 18.5795 20.4417 19.5106 19.5106C20.4417 18.5795 20.9647 17.3167 20.9647 16C20.9647 15.0181 20.6736 14.0582 20.128 13.2417C19.5825 12.4253 18.8071 11.789 17.8999 11.4132C16.9927 11.0374 15.9945 10.9391 15.0314 11.1307C14.0684 11.3222 13.1837 11.7951 12.4894 12.4894C11.7951 13.1837 11.3222 14.0684 11.1307 15.0314C10.9391 15.9945 11.0374 16.9927 11.4132 17.8999C11.789 18.8071 12.4253 19.5825 13.2417 20.128Z" stroke="#0076FF"/>
</svg>
