<?xml version="1.0" encoding="utf-8"?>
<!-- Svg Vector Icons : http://www.onlinewebfonts.com/icon -->
<!DOCTYPE svg PUBLIC "-//W3C//DTD SVG 1.1//EN" "http://www.w3.org/Graphics/SVG/1.1/DTD/svg11.dtd">
<svg version="1.1" xmlns="http://www.w3.org/2000/svg" xmlns:xlink="http://www.w3.org/1999/xlink" x="0px" y="0px" viewBox="0 0 1000 1000" enable-background="new 0 0 1000 1000" xml:space="preserve">
<metadata> Svg Vector Icons : http://www.onlinewebfonts.com/icon </metadata>
<g><path d="M500,10C227.8,10,10,227.8,10,500c0,272.2,217.8,490,490,490c43.6,0,81.7-38.1,81.7-81.7c0-21.8-5.4-38.1-21.8-54.4c-10.9-16.3-21.8-32.7-21.8-54.4c0-43.6,38.1-81.7,81.7-81.7h98C870.2,717.8,990,598,990,445.6C990,206,772.2,10,500,10z M200.6,500c-43.6,0-81.7-38.1-81.7-81.7s38.1-81.7,81.7-81.7c43.6,0,81.7,38.1,81.7,81.7S244.1,500,200.6,500z M363.9,282.2c-43.6,0-81.7-38.1-81.7-81.7c0-43.6,38.1-81.7,81.7-81.7c43.6,0,81.7,38.1,81.7,81.7C445.6,244.1,407.4,282.2,363.9,282.2z M636.1,282.2c-43.6,0-81.7-38.1-81.7-81.7c0-43.6,38.1-81.7,81.7-81.7c43.6,0,81.7,38.1,81.7,81.7C717.8,244.1,679.7,282.2,636.1,282.2z M799.4,500c-43.6,0-81.7-38.1-81.7-81.7s38.1-81.7,81.7-81.7c43.6,0,81.7,38.1,81.7,81.7S843,500,799.4,500z"/></g>
</svg>